# xmcd CD database file
#
# Track frame offsets:
#	150
#	32616
#	56978
#	84635
#	114952
#	144473
#	173161
#	198635
#	229583
#	248185
#
# Disc length: 3772 seconds
#
# Revision: 0
# Processed by: cddbd v1.5.2PL0 Copyright (c) Steve Scherf et al.
# Submitted via: CDex 1.70beta2
#
DISCID=850eba0a
DTITLE=Mike Stern - Play
DYEAR=1999
DGENRE=Jazz
TTITLE0=play
TTITLE1=small world
TTITLE2=outta town
TTITLE3=blue tone
TTITLE4=tipatina's
TTITLE5=all heart
TTITLE6=frizz
TTITLE7=link
TTITLE8=goin' under
TTITLE9=big kids
EXTD=YEAR: 1999
EXTT0=
EXTT1=
EXTT2=
EXTT3=
EXTT4=
EXTT5=
EXTT6=
EXTT7=
EXTT8=
EXTT9=
PLAYORDER=
